<svg xmlns="http://www.w3.org/2000/svg" width="980" height="560" viewBox="0 0 980 560" role="img" aria-labelledby="title desc">
  <title id="title">Nord ib cache, read endpoint, write endpoint, and worker flow</title>
  <desc id="desc">Static worker boxes use a preloaded Badger cache snapshot and fall back to per-zone cache checks. Small animated markers show read traffic to a GCM endpoint, write traffic to the primary Grid Master, and background refresh traffic updating the cache.</desc>
  <defs>
    <linearGradient id="page-bg" x1="0" y1="0" x2="980" y2="560" gradientUnits="userSpaceOnUse">
      <stop offset="0" stop-color="#2E3440" />
      <stop offset=".55" stop-color="#242933" />
      <stop offset="1" stop-color="#1f2430" />
    </linearGradient>
    <linearGradient id="panel-grad" x1="35" y1="40" x2="945" y2="515" gradientUnits="userSpaceOnUse">
      <stop offset="0" stop-color="#3B4252" />
      <stop offset="1" stop-color="#2E3440" />
    </linearGradient>
    <linearGradient id="worker-grad" x1="70" y1="0" x2="210" y2="0" gradientUnits="userSpaceOnUse">
      <stop offset="0" stop-color="#5E81AC" />
      <stop offset="1" stop-color="#88C0D0" />
    </linearGradient>
    <linearGradient id="cache-grad" x1="430" y1="205" x2="620" y2="335" gradientUnits="userSpaceOnUse">
      <stop offset="0" stop-color="#3B4252" />
      <stop offset="1" stop-color="#536d56" />
    </linearGradient>
    <linearGradient id="read-grad" x1="800" y1="90" x2="930" y2="165" gradientUnits="userSpaceOnUse">
      <stop offset="0" stop-color="#434C5E" />
      <stop offset="1" stop-color="#5E81AC" />
    </linearGradient>
    <linearGradient id="write-grad" x1="800" y1="380" x2="930" y2="455" gradientUnits="userSpaceOnUse">
      <stop offset="0" stop-color="#4C566A" />
      <stop offset="1" stop-color="#8d6656" />
    </linearGradient>
    <linearGradient id="refresh-grad" x1="650" y1="292" x2="775" y2="362" gradientUnits="userSpaceOnUse">
      <stop offset="0" stop-color="#3B4252" />
      <stop offset="1" stop-color="#725f78" />
    </linearGradient>
    <linearGradient id="write-box-grad" x1="70" y1="445" x2="315" y2="493" gradientUnits="userSpaceOnUse">
      <stop offset="0" stop-color="#434C5E" />
      <stop offset="1" stop-color="#3B4252" />
    </linearGradient>
    <filter id="soft-glow" x="-20%" y="-20%" width="140%" height="140%">
      <feDropShadow dx="0" dy="10" stdDeviation="12" flood-color="#1f2430" flood-opacity=".55" />
      <feDropShadow dx="0" dy="0" stdDeviation="4" flood-color="#81A1C1" flood-opacity=".14" />
    </filter>
    <path id="worker1-cache" d="M210 145 L360 145 L360 235 L430 235" />
    <path id="worker2-cache" d="M210 255 L430 255" />
    <path id="worker3-cache" d="M210 365 L360 365 L360 295 L430 295" />
    <path id="cache-read" d="M620 230 L715 230 L715 125 L800 125" />
    <path id="write-primary" d="M315 469 L485 469 L485 415 L800 415" />
    <path id="refresh-cache" d="M650 330 L620 330" />
    <marker id="arrow" viewBox="0 0 8 8" refX="6.4" refY="4" markerWidth="4" markerHeight="4" orient="auto-start-reverse">
      <path d="M 0 0 L 8 4 L 0 8 z" fill="#D8DEE9" />
    </marker>
  </defs>

  <style>
    .bg { fill: url(#page-bg); }
    .panel { fill: url(#panel-grad); stroke: #4C566A; stroke-width: 1.4; }
    .worker { fill: url(#worker-grad); stroke: #8FBCBB; stroke-width: 1.3; }
    .cache { fill: url(#cache-grad); stroke: #A3BE8C; stroke-width: 1.5; }
    .server-read { fill: url(#read-grad); stroke: #81A1C1; stroke-width: 1.4; }
    .server-write { fill: url(#write-grad); stroke: #D08770; stroke-width: 1.4; }
    .refresh { fill: url(#refresh-grad); stroke: #B48EAD; stroke-width: 1.4; }
    .write-box { fill: url(#write-box-grad); stroke: #81A1C1; stroke-width: 1.2; }
    .text { font: 650 17px ui-sans-serif, system-ui, -apple-system, BlinkMacSystemFont, "Segoe UI", sans-serif; fill: #ECEFF4; }
    .small { font: 520 13px ui-sans-serif, system-ui, -apple-system, BlinkMacSystemFont, "Segoe UI", sans-serif; fill: #D8DEE9; }
    .tiny { font: 520 12px ui-sans-serif, system-ui, -apple-system, BlinkMacSystemFont, "Segoe UI", sans-serif; fill: #C8D0DE; }
    .line { fill: none; stroke-width: 2.4; stroke-linecap: square; stroke-linejoin: miter; marker-end: url(#arrow); }
    .cache-line { stroke: #A3BE8C; }
    .read-line { stroke: #81A1C1; }
    .write-line { stroke: #D08770; }
    .refresh-line { stroke: #B48EAD; }
    .dot-read { fill: #81A1C1; }
    .dot-write { fill: #D08770; }
    .dot-cache { fill: #A3BE8C; }
    .dot-refresh { fill: #B48EAD; }
    .badge { fill: #2E3440; stroke: #4C566A; stroke-width: 1; }
    .node { filter: url(#soft-glow); }
  </style>

  <rect class="bg" width="980" height="560" />
  <rect class="panel" x="35" y="40" width="910" height="475" rx="5" />

  <text class="text" x="65" y="80">ib DNS Search, Cache, and Infoblox Routing</text>
  <text class="small" x="65" y="106">Search preloads selected cache rows before workers. GET can use GCM. Writes stay on the primary Grid Master.</text>

  <rect class="worker node" x="70" y="120" width="140" height="50" rx="4" />
  <text class="text" x="100" y="150">Worker 1</text>
  <text class="tiny" x="84" y="167">zone A cached row</text>

  <rect class="worker node" x="70" y="230" width="140" height="50" rx="4" />
  <text class="text" x="100" y="260">Worker 2</text>
  <text class="tiny" x="84" y="277">zone B cached row</text>

  <rect class="worker node" x="70" y="340" width="140" height="50" rx="4" />
  <text class="text" x="100" y="370">Worker 3</text>
  <text class="tiny" x="84" y="387">zone C cached row</text>

  <rect class="cache node" x="430" y="205" width="190" height="130" rx="4" />
  <text class="text" x="478" y="246">Badger Cache</text>
  <rect class="badge" x="456" y="266" width="137" height="23" rx="2" />
  <text class="tiny" x="469" y="282">record_cache</text>
  <rect class="badge" x="456" y="296" width="137" height="23" rx="2" />
  <text class="tiny" x="469" y="312">refresh_locks</text>

  <rect class="server-read node" x="800" y="90" width="130" height="75" rx="4" />
  <text class="text" x="834" y="123">GCM</text>
  <text class="small" x="817" y="145">read endpoint</text>

  <rect class="server-write node" x="800" y="380" width="130" height="75" rx="4" />
  <text class="text" x="824" y="413">Primary</text>
  <text class="small" x="816" y="435">Grid Master</text>

  <rect class="refresh node" x="650" y="292" width="125" height="70" rx="4" />
  <text class="text" x="665" y="326">Refresh</text>
  <text class="small" x="659" y="346">subprocess</text>

  <rect class="write-box node" x="70" y="445" width="245" height="48" rx="4" />
  <text class="text" x="96" y="475">create / edit / delete</text>

  <path class="line cache-line" d="M210 145 L360 145 L360 235 L430 235" />
  <path class="line cache-line" d="M210 255 L430 255" />
  <path class="line cache-line" d="M210 365 L360 365 L360 295 L430 295" />
  <path class="line read-line" d="M620 230 L715 230 L715 125 L800 125" />
  <path class="line write-line" d="M315 469 L485 469 L485 415 L800 415" />
  <path class="line refresh-line" d="M650 330 L620 330" />

  <circle class="dot-cache" r="5">
    <animateMotion dur="2.7s" repeatCount="indefinite" rotate="auto">
      <mpath href="#worker1-cache" />
    </animateMotion>
  </circle>
  <circle class="dot-cache" r="5">
    <animateMotion dur="2.7s" begin=".45s" repeatCount="indefinite" rotate="auto">
      <mpath href="#worker2-cache" />
    </animateMotion>
  </circle>
  <circle class="dot-cache" r="5">
    <animateMotion dur="2.7s" begin=".9s" repeatCount="indefinite" rotate="auto">
      <mpath href="#worker3-cache" />
    </animateMotion>
  </circle>
  <circle class="dot-read" r="5">
    <animateMotion dur="3.1s" begin=".3s" repeatCount="indefinite" rotate="auto">
      <mpath href="#cache-read" />
    </animateMotion>
  </circle>
  <circle class="dot-write" r="5.5">
    <animateMotion dur="3.8s" begin=".2s" repeatCount="indefinite" rotate="auto">
      <mpath href="#write-primary" />
    </animateMotion>
  </circle>
  <circle class="dot-refresh" r="5">
    <animateMotion dur="3.2s" begin="1s" repeatCount="indefinite" rotate="auto">
      <mpath href="#refresh-cache" />
    </animateMotion>
  </circle>

  <text class="tiny" x="245" y="135">prefetched cache rows</text>
  <text class="tiny" x="635" y="216">GET / SOA / allrecords</text>
  <text class="tiny" x="515" y="489">POST / PUT / DELETE</text>
  <text class="tiny" x="599" y="382">renew or replace cache</text>
</svg>
