<svg xmlns="http://www.w3.org/2000/svg" width="980" height="500" viewBox="0 0 980 500" role="img" aria-labelledby="title desc">
  <title id="title">Nord cache decision flow</title>
  <desc id="desc">Compact flow showing how ib returns fresh cache, serves stale rows, or refreshes DNS/IPAM data from Infoblox.</desc>
  <defs>
    <linearGradient id="page-bg" x1="0" y1="0" x2="980" y2="500" gradientUnits="userSpaceOnUse">
      <stop offset="0" stop-color="#2E3440" />
      <stop offset=".58" stop-color="#242933" />
      <stop offset="1" stop-color="#1f2430" />
    </linearGradient>
    <linearGradient id="panel-grad" x1="32" y1="36" x2="948" y2="462" gradientUnits="userSpaceOnUse">
      <stop offset="0" stop-color="#3B4252" />
      <stop offset="1" stop-color="#2E3440" />
    </linearGradient>
    <linearGradient id="entry-grad" x1="60" y1="0" x2="404" y2="0" gradientUnits="userSpaceOnUse">
      <stop offset="0" stop-color="#434C5E" />
      <stop offset="1" stop-color="#5E81AC" />
    </linearGradient>
    <linearGradient id="fresh-grad" x1="450" y1="145" x2="910" y2="205" gradientUnits="userSpaceOnUse">
      <stop offset="0" stop-color="#3B4252" />
      <stop offset="1" stop-color="#536d56" />
    </linearGradient>
    <linearGradient id="stale-grad" x1="450" y1="235" x2="910" y2="295" gradientUnits="userSpaceOnUse">
      <stop offset="0" stop-color="#3B4252" />
      <stop offset="1" stop-color="#725f78" />
    </linearGradient>
    <linearGradient id="fetch-grad" x1="450" y1="330" x2="910" y2="425" gradientUnits="userSpaceOnUse">
      <stop offset="0" stop-color="#434C5E" />
      <stop offset="1" stop-color="#8d6656" />
    </linearGradient>
    <filter id="shadow" x="-18%" y="-18%" width="136%" height="136%">
      <feDropShadow dx="0" dy="9" stdDeviation="10" flood-color="#1f2430" flood-opacity=".55" />
    </filter>
    <marker id="arrow" viewBox="0 0 8 8" refX="6.4" refY="4" markerWidth="4" markerHeight="4" orient="auto-start-reverse">
      <path d="M 0 0 L 8 4 L 0 8 z" fill="#D8DEE9" />
    </marker>
  </defs>

  <style>
    .bg { fill: url(#page-bg); }
    .panel { fill: url(#panel-grad); stroke: #4C566A; stroke-width: 1.3; }
    .entry { fill: url(#entry-grad); stroke: #81A1C1; stroke-width: 1.2; }
    .fresh { fill: url(#fresh-grad); stroke: #A3BE8C; stroke-width: 1.2; }
    .stale { fill: url(#stale-grad); stroke: #B48EAD; stroke-width: 1.2; }
    .fetch { fill: url(#fetch-grad); stroke: #D08770; stroke-width: 1.2; }
    .node { filter: url(#shadow); }
    .line { fill: none; stroke: #D8DEE9; stroke-width: 2; stroke-linecap: square; stroke-linejoin: miter; marker-end: url(#arrow); opacity: .9; }
    .fresh-line { stroke: #A3BE8C; }
    .stale-line { stroke: #B48EAD; }
    .fetch-line { stroke: #D08770; }
    .title { font: 700 18px ui-sans-serif, system-ui, -apple-system, BlinkMacSystemFont, "Segoe UI", sans-serif; fill: #ECEFF4; }
    .subtitle { font: 520 13px ui-sans-serif, system-ui, -apple-system, BlinkMacSystemFont, "Segoe UI", sans-serif; fill: #D8DEE9; }
    .label { font: 650 14px ui-sans-serif, system-ui, -apple-system, BlinkMacSystemFont, "Segoe UI", sans-serif; fill: #ECEFF4; }
    .small { font: 520 12px ui-sans-serif, system-ui, -apple-system, BlinkMacSystemFont, "Segoe UI", sans-serif; fill: #D8DEE9; }
  </style>

  <rect class="bg" width="980" height="500" />
  <rect class="panel" x="32" y="36" width="916" height="426" rx="5" />
  <text class="title" x="60" y="72">Cache Decision Flow</text>
  <text class="subtitle" x="60" y="95">Fresh rows return immediately. Stale rows return on the fast path; IPAM list/search may serve older cache.</text>

  <rect class="entry node" x="60" y="133" width="150" height="56" rx="4" />
  <text class="label" x="83" y="157">Read request</text>
  <text class="small" x="83" y="175">DNS or IPAM</text>

  <rect class="entry node" x="255" y="133" width="170" height="56" rx="4" />
  <text class="label" x="281" y="157">Read cache row</text>
  <text class="small" x="281" y="175">profile + scope</text>

  <rect class="fresh node" x="470" y="126" width="185" height="70" rx="4" />
  <text class="label" x="493" y="151">Fresh row</text>
  <text class="small" x="493" y="169">now &lt; cached_at</text>
  <text class="small" x="493" y="184">+ cache_ttl</text>

  <rect class="fresh node" x="715" y="126" width="175" height="70" rx="4" />
  <text class="label" x="740" y="151">Return rows</text>
  <text class="small" x="740" y="169">no Infoblox call</text>

  <rect class="stale node" x="470" y="232" width="185" height="70" rx="4" />
  <text class="label" x="493" y="257">Stale inside SWR</text>
  <text class="small" x="493" y="275">now &lt; stale_expires_at</text>

  <rect class="stale node" x="715" y="222" width="175" height="90" rx="4" />
  <text class="label" x="739" y="248">Return stale rows</text>
  <text class="small" x="739" y="266">renew locally</text>
  <text class="small" x="739" y="282">or acquire lease</text>

  <rect class="fetch node" x="470" y="344" width="185" height="70" rx="4" />
  <text class="label" x="493" y="369">Missing or refresh</text>
  <text class="small" x="493" y="387">foreground WAPI read</text>

  <rect class="fetch node" x="715" y="330" width="175" height="98" rx="4" />
  <text class="label" x="739" y="354">Refresh cache</text>
  <text class="small" x="739" y="372">DNS: use/check serial</text>
  <text class="small" x="739" y="388">IPAM: skip serial</text>
  <text class="small" x="739" y="404">then return rows</text>

  <path class="line" d="M210 161 L255 161" />
  <path class="line fresh-line" d="M425 161 L470 161" />
  <path class="line stale-line" d="M425 161 L445 161 L445 267 L470 267" />
  <path class="line fetch-line" d="M425 161 L445 161 L445 379 L470 379" />
  <path class="line fresh-line" d="M655 161 L715 161" />
  <path class="line stale-line" d="M655 267 L715 267" />
  <path class="line fetch-line" d="M655 379 L715 379" />

  <text class="small" x="470" y="114">cache hit path</text>
  <text class="small" x="470" y="220">stale or cached IPAM list/search path</text>
  <text class="small" x="470" y="332">missing cache or --refresh path</text>
</svg>
