<svg xmlns="http://www.w3.org/2000/svg" width="980" height="610" viewBox="0 0 980 610" role="img" aria-labelledby="title desc">
  <title id="title">Nord SQLite cache tables</title>
  <desc id="desc">SQLite cache table diagram for DNS and IPAM cache tables, including refresh lock tables.</desc>
  <defs>
    <linearGradient id="page-bg" x1="0" y1="0" x2="980" y2="610" gradientUnits="userSpaceOnUse">
      <stop offset="0" stop-color="#2E3440" />
      <stop offset=".58" stop-color="#242933" />
      <stop offset="1" stop-color="#1f2430" />
    </linearGradient>
    <linearGradient id="panel-grad" x1="32" y1="36" x2="948" y2="570" gradientUnits="userSpaceOnUse">
      <stop offset="0" stop-color="#3B4252" />
      <stop offset="1" stop-color="#2E3440" />
    </linearGradient>
    <linearGradient id="meta-grad" x1="60" y1="112" x2="450" y2="250" gradientUnits="userSpaceOnUse">
      <stop offset="0" stop-color="#434C5E" />
      <stop offset="1" stop-color="#5E81AC" />
    </linearGradient>
    <linearGradient id="zone-grad" x1="530" y1="112" x2="920" y2="306" gradientUnits="userSpaceOnUse">
      <stop offset="0" stop-color="#3B4252" />
      <stop offset="1" stop-color="#536d56" />
    </linearGradient>
    <linearGradient id="record-grad" x1="60" y1="300" x2="450" y2="550" gradientUnits="userSpaceOnUse">
      <stop offset="0" stop-color="#3B4252" />
      <stop offset="1" stop-color="#725f78" />
    </linearGradient>
    <linearGradient id="lock-grad" x1="530" y1="358" x2="920" y2="550" gradientUnits="userSpaceOnUse">
      <stop offset="0" stop-color="#434C5E" />
      <stop offset="1" stop-color="#8d6656" />
    </linearGradient>
    <filter id="shadow" x="-18%" y="-18%" width="136%" height="136%">
      <feDropShadow dx="0" dy="9" stdDeviation="10" flood-color="#1f2430" flood-opacity=".55" />
    </filter>
    <marker id="arrow" viewBox="0 0 8 8" refX="6.4" refY="4" markerWidth="4" markerHeight="4" orient="auto-start-reverse">
      <path d="M 0 0 L 8 4 L 0 8 z" fill="#D8DEE9" />
    </marker>
  </defs>

  <style>
    .bg { fill: url(#page-bg); }
    .panel { fill: url(#panel-grad); stroke: #4C566A; stroke-width: 1.3; }
    .table { filter: url(#shadow); stroke-width: 1.2; }
    .meta { fill: url(#meta-grad); stroke: #81A1C1; }
    .zone { fill: url(#zone-grad); stroke: #A3BE8C; }
    .record { fill: url(#record-grad); stroke: #B48EAD; }
    .lock { fill: url(#lock-grad); stroke: #D08770; }
    .header { fill: #2E3440; opacity: .72; }
    .row { stroke: #4C566A; stroke-width: 1; opacity: .72; }
    .line { fill: none; stroke: #D8DEE9; stroke-width: 1.8; stroke-linecap: square; stroke-linejoin: miter; marker-end: url(#arrow); opacity: .72; }
    .title { font: 700 18px ui-sans-serif, system-ui, -apple-system, BlinkMacSystemFont, "Segoe UI", sans-serif; fill: #ECEFF4; }
    .subtitle { font: 520 13px ui-sans-serif, system-ui, -apple-system, BlinkMacSystemFont, "Segoe UI", sans-serif; fill: #D8DEE9; }
    .table-title { font: 700 15px ui-sans-serif, system-ui, -apple-system, BlinkMacSystemFont, "Segoe UI", sans-serif; fill: #ECEFF4; }
    .col { font: 540 13px ui-monospace, SFMono-Regular, Menlo, Consolas, monospace; fill: #ECEFF4; }
    .pk { fill: #EBCB8B; font-weight: 700; }
    .note { font: 520 12px ui-sans-serif, system-ui, -apple-system, BlinkMacSystemFont, "Segoe UI", sans-serif; fill: #D8DEE9; }
  </style>

  <rect class="bg" width="980" height="610" />
  <rect class="panel" x="32" y="36" width="916" height="534" rx="5" />
  <text class="title" x="60" y="72">SQLite Cache Tables</text>
  <text class="subtitle" x="60" y="95">DNS rows use profile/view/zone; IPAM rows use profile plus network view or IP so multi-profile use stays isolated.</text>

  <g class="table">
    <rect class="meta" x="60" y="122" width="390" height="126" rx="4" />
    <rect class="header" x="60" y="122" width="390" height="38" rx="4" />
    <text class="table-title" x="82" y="146">cache_meta</text>
    <line class="row" x1="60" y1="160" x2="450" y2="160" />
    <text class="col pk" x="82" y="185">key text PK</text>
    <line class="row" x1="60" y1="198" x2="450" y2="198" />
    <text class="col" x="82" y="223">value text</text>
  </g>

  <g class="table">
    <rect class="zone" x="530" y="122" width="390" height="182" rx="4" />
    <rect class="header" x="530" y="122" width="390" height="38" rx="4" />
    <text class="table-title" x="552" y="146">zone_cache</text>
    <line class="row" x1="530" y1="160" x2="920" y2="160" />
    <text class="col pk" x="552" y="185">cache_key text PK</text>
    <line class="row" x1="530" y1="198" x2="920" y2="198" />
    <text class="col" x="552" y="223">profile text, view text</text>
    <line class="row" x1="530" y1="236" x2="920" y2="236" />
    <text class="col" x="552" y="261">cached_at integer</text>
    <line class="row" x1="530" y1="274" x2="920" y2="274" />
    <text class="col" x="552" y="289">payload_json text</text>
  </g>

  <g class="table">
    <rect class="record" x="60" y="318" width="390" height="226" rx="4" />
    <rect class="header" x="60" y="318" width="390" height="38" rx="4" />
    <text class="table-title" x="82" y="342">record_cache</text>
    <line class="row" x1="60" y1="356" x2="450" y2="356" />
    <text class="col pk" x="82" y="381">cache_key text PK</text>
    <line class="row" x1="60" y1="394" x2="450" y2="394" />
    <text class="col" x="82" y="419">profile text, view text, zone text</text>
    <line class="row" x1="60" y1="432" x2="450" y2="432" />
    <text class="col" x="82" y="457">zone_serial text</text>
    <line class="row" x1="60" y1="470" x2="450" y2="470" />
    <text class="col" x="82" y="495">cached_at integer, stale_expires_at integer</text>
    <line class="row" x1="60" y1="508" x2="450" y2="508" />
    <text class="col" x="82" y="529">payload_json text</text>
  </g>

  <g class="table">
    <rect class="lock" x="530" y="356" width="390" height="188" rx="4" />
    <rect class="header" x="530" y="356" width="390" height="38" rx="4" />
    <text class="table-title" x="552" y="380">refresh_locks</text>
    <line class="row" x1="530" y1="394" x2="920" y2="394" />
    <text class="col pk" x="552" y="419">cache_key text PK</text>
    <line class="row" x1="530" y1="432" x2="920" y2="432" />
    <text class="col" x="552" y="457">record: profile, view, zone</text>
    <line class="row" x1="530" y1="470" x2="920" y2="470" />
    <text class="col" x="552" y="495">net: profile, kind, scope</text>
    <line class="row" x1="530" y1="508" x2="920" y2="508" />
    <text class="col" x="552" y="529">started_at integer, expires_at integer</text>
  </g>

  <text class="note" x="60" y="575">IPAM tables: network_view_cache, network_cache, ipv4_address_cache store payload_json with cached_at and stale_expires_at.</text>

  <path class="line" d="M450 190 L530 190" />
  <path class="line" d="M450 432 L530 432" />
  <text class="note" x="470" y="178">profile/view</text>
  <text class="note" x="470" y="420">same cache key</text>
</svg>
